<?xml version="1.0" encoding="UTF-8"?>
<svg id="Layer_1" data-name="Layer 1" xmlns="http://www.w3.org/2000/svg" width="76mm" height="37mm" viewBox="0 0 215.433 104.882">
  <defs>
    <style>
      .cls-1 {
        fill: #ffffff;
      }
    </style>
  </defs>
  <path class="cls-1" d="m121.344,68.803c-.099-1.608-.209-3.216-.292-4.825-.054-1.049-.006-2.092.31-3.108.351-1.13.57-2.288.546-3.472-.013-.626-.085-1.266-.244-1.871-.319-1.214-1.461-1.506-2.366-.637-.171.164-.344.356-.433.569-.301.721-.648,1.438-.821,2.192-.218.95-.281,1.936-.413,2.906-.173,1.272-.339,2.545-.529,3.815-.038.252-.137.511-.27.73-.316.519-.825.514-1.137-.013-.13-.22-.224-.481-.261-.734-.206-1.422-.365-2.843-.225-4.291.093-.953.088-1.921.046-2.879-.057-1.317-.669-2.406-1.692-3.201-1.183-.919-1.747-2.112-1.978-3.553-.331-2.061-1.036-4.005-2.022-5.847-.587-1.097-1.15-2.206-1.729-3.307-.101-.193-.214-.381-.338-.56-.815-1.165-1.783-1.519-3.184-1.221-2.045.435-3.757,1.446-5.289,2.85-.635.582-1.376,1.093-2.148,1.475-2.165,1.07-4.15,2.404-6.087,3.831-1.176.867-2.401,1.668-3.608,2.494-.829.567-1.672,1.113-2.493,1.69-.915.644-1.879,1.2-2.917,1.61-1.873.74-2.86,2.129-3.105,4.096-.124.991-.256,1.982-.147,2.982.047.432.078.876.205,1.288.438,1.416.88,2.834,1.643,4.123.144.244.275.499.378.762.315.804.038,1.419-.769,1.725-.224.085-.453.166-.688.207-1.423.25-2.385,1.109-3.087,2.314-.79,1.357-1.244,2.829-1.45,4.379-.21,1.579-.277,3.166-.312,4.758-.019.889-.117,1.779-.225,2.663-.036.291-.177.59-.339.84-.57.878-1.618.867-2.223.007-.394-.56-.513-1.213-.551-1.86-.094-1.595-.646-3.013-1.501-4.338-.571-.886-.951-1.858-1.297-2.851-.329-.946-.668-1.895-1.1-2.796-.661-1.376-.985-2.833-1.248-4.317-.257-1.452-.944-2.681-2.109-3.584-1.534-1.188-3.113-2.32-4.676-3.47-.86-.633-1.81-1.15-2.522-1.97-.357-.411-.724-.819-1.034-1.265-.773-1.116-1.761-1.931-3.076-2.311-.975-.282-1.855-.753-2.713-1.282-.313-.193-.652-.363-1.001-.472-1.09-.34-2.048.062-2.45,1.135-.271.723-.361,1.517-.503,2.284-.111.598-.157,1.208-.276,1.805-.049.247-.177.498-.331.699-.358.468-.951.465-1.249-.044-.225-.385-.361-.838-.46-1.277-.134-.593-.163-1.21-.295-1.803-.098-.442-.233-.894-.447-1.289-.465-.857-1.38-1.176-2.298-.851-.889.315-1.555.954-2.222,1.583-.461.434-.91.883-1.345,1.344-.98,1.04-2.196,1.536-3.604,1.626-.368.023-.736.076-1.1.137-1.895.315-3.089,2.021-3.163,3.746-.041.963.02,1.919.262,2.857.343,1.329.659,2.665,1.035,3.985.6,2.108,1.802,3.853,3.321,5.408.577.59,1.116,1.229,1.593,1.902,1.162,1.637,1.416,3.441.795,5.348-.249.766-.557,1.514-.866,2.259-.591,1.421-1.016,2.878-1.027,4.431-.008,1.086.029,2.174-.009,3.259-.042,1.173-.103,2.35-.248,3.514-.053.424-.299.875-.582,1.208-.604.71-1.497.637-2.082-.093-.401-.5-.535-1.093-.572-1.709-.071-1.174-.109-2.351-.182-3.525-.023-.367-.088-.736-.18-1.092-.237-.921-.846-1.449-1.783-1.597-.301-.048-.603-.087-.905-.121-1.135-.126-1.948-.705-2.443-1.731-.095-.196-.191-.395-.258-.601-.788-2.444-1.837-4.807-2.207-7.381-.199-1.383-.829-2.606-1.603-3.762-.424-.633-.854-1.277-1.171-1.966-.903-1.963-2.163-3.68-3.488-5.366-1.145-1.458-2.349-2.885-3.338-4.445-1.79-2.824-3.35-5.781-4.161-9.062-.967-3.914-.468-7.616,1.691-11.053,1.416-2.255,3.372-3.916,5.71-5.166,1.852-.991,3.847-1.503,5.883-1.928.847-.177,1.692-.434,2.487-.774.98-.42,1.701-1.194,2.361-2.023,1.182-1.484,2.334-2.996,3.586-4.419,3.349-3.803,7.214-6.972,11.793-9.198,1.967-.957,4.082-1.526,6.197-2.066,1.036-.265,2.091-.408,3.169-.416,1.171-.008,2.302.167,3.41.528,1.161.378,2.335.719,3.481,1.137,2.023.736,3.367,2.214,4.277,4.111.657,1.369,1.071,2.817,1.083,4.344.007.824-.035,1.659-.163,2.473-.216,1.376-.496,2.744-.791,4.107-.308,1.422-.954,2.711-1.679,3.961-.437.755-.882,1.506-1.308,2.267-.32.572-.589,1.166-.663,1.832-.144,1.292.518,2.214,1.4,3.018.466.425.983.795,1.484,1.181,1.053.814,2.1,1.637,3.172,2.425.417.306.869.606,1.353.768,1.05.352,2.016-.349,2.016-1.461,0-.51-.139-1.036-.3-1.527-.525-1.597-1.054-3.192-1.282-4.863-.574-4.203.02-8.173,2.43-11.761,1.973-2.937,4.259-5.591,7.145-7.672,3.238-2.335,6.793-3.914,10.805-4.333.843-.088,1.693-.231,2.534-.202,2.545.089,5.013.593,7.371,1.586,2.357.993,4.464,2.372,6.368,4.07.765.682,1.494,1.407,2.283,2.058.431.355.926.669,1.443.875,1.025.409,1.993.099,2.843-.501,1.033-.729,2.036-1.504,3.013-2.306,1.01-.83,2.023-1.667,2.948-2.589,1.526-1.522,3.135-2.992,4.179-4.921.455-.841.816-1.736,1.2-2.614.476-1.086,1.034-2.11,1.886-2.961,3.452-3.444,8.585-1.694,9.806,2.591.212.743.211,1.548.298,2.325.051.454.039.918.127,1.363.235,1.19.976,1.964,2.46,1.993,1.216.024,2.435-.111,3.652-.175.174-.009.349-.027.523-.023,2.138.042,4.28.015,6.412.147,3.415.21,6.801.685,10.141,1.451.593.136,1.197.281,1.8.304.927.036,1.741-.264,2.272-1.245.407-.751.425-1.588.503-2.411.088-.931.136-1.87.29-2.79.154-.917.545-1.759,1.261-2.387,1.374-1.203,3.273-1.03,4.48.376.656.764,1.043,1.662,1.298,2.618.331,1.245.518,2.516.584,3.804.065,1.283.128,2.566.224,3.846.098,1.305.598,2.452,1.493,3.41.928.992,1.972,1.851,3.103,2.604,1.141.76,2.4,1.134,3.768,1.107,1.657-.032,3.316-.055,4.971-.138,1.782-.09,3.561-.248,5.342-.372,1.763-.123,3.519-.037,5.282.086,1.231.086,2.479-.091,3.72-.126,1.11-.032,2.225-.094,3.33-.023.882.057,1.755.284,2.627.462.228.047.467.153.65.297,1.434,1.128,2.544,2.492,2.666,4.386.088,1.366.116,2.752-.22,4.102-.131.527-.302,1.048-.504,1.551-.49,1.217-1.285,1.362-2.383,1.176-.708-.12-1.301-.507-1.742-1.079-.359-.466-.741-.93-1.005-1.449-1.068-2.105-2.891-2.93-5.114-3.093-2.041-.15-4.089-.22-6.125-.42-1.277-.126-2.518.086-3.772.175-1.105.079-2.21.203-3.306.37-1.902.291-2.737,1.883-2.294,3.558.127.482.302.953.488,1.417.146.364.355.702.513,1.061.355.803.284,1.572-.222,2.296-.013.018-.024.037-.04.052-1.509,1.534-2.109,3.53-2.816,5.479-.7,1.931-1.551,3.798-2.636,5.547-.276.444-.578.875-.894,1.291-1.087,1.43-1.986,2.971-2.795,4.573-.838,1.659-1.791,3.255-3.049,4.635-.705.773-1.482,1.481-2.238,2.207-1.296,1.245-1.933,2.787-1.996,4.555-.058,1.636-.014,3.276-.061,4.913-.032,1.108-.125,2.216-.235,3.32-.033.335-.183.67-.331.98-.14.292-.405.468-.747.431-.333-.036-.578-.235-.669-.551-.107-.374-.202-.761-.229-1.148-.142-1.998-.245-3.998-.395-5.995-.091-1.214-.203-2.43-.388-3.632-.073-.476-.309-.959-.583-1.364-.514-.761-1.414-.903-2.193-.42-.504.313-.83.774-1.013,1.327-.151.454-.256.923-.387,1.384-.077.272-.144.549-.249.811-.469,1.176-1.521,1.525-2.604.875-.634-.38-1.103-.92-1.475-1.546-.223-.375-.416-.767-.615-1.156-.424-.828-.981-1.552-1.731-2.107-.825-.61-1.66-1.215-2.641-1.554-1.043-.36-1.926-.072-2.464.896-.311.56-.551,1.203-.641,1.834-.199,1.402-.192,2.817-.104,4.238.075,1.215.012,2.442-.051,3.66-.064,1.239-.196,2.474-.313,3.71-.064.671-.126,1.345-.253,2.006-.063.328-.218.67-.423.934-.3.386-.791.37-1.052-.039-.217-.34-.385-.742-.459-1.137-.311-1.658-.294-3.329-.198-5.011.068-1.194.005-2.398-.044-3.596-.029-.694-.101-1.393-.236-2.074-.224-1.129-.741-2.139-1.437-3.054-2.755-3.619-4.843-7.613-6.652-11.767-.704-1.617-1.061-3.316-1.246-5.056-.151-1.421-.767-2.608-1.665-3.699-.984-1.194-1.9-2.443-2.854-3.662-.201-.257-.417-.508-.657-.728-.873-.799-1.873-.527-2.243.595-.266.804-.242,1.642-.231,2.463.016,1.195.18,2.388.212,3.584.028,1.044.018,2.095-.078,3.134-.137,1.483-.114,2.958.012,4.436.183,2.145-.038,4.257-.457,6.359-.511,2.567-.887,5.15-.898,7.778-.002.536-.129,1.078-.252,1.605-.101.432-.403.765-.858.786-.423.02-.71-.275-.9-.654-.333-.663-.373-1.388-.413-2.1-.048-.849-.011-1.702-.011-2.553.012-.002.024-.003.036-.005Zm-39.739-26.036c.863-.136,1.731-.223,2.575-.415,2.296-.522,4.419-1.49,6.418-2.711,2.4-1.466,4.764-2.991,7.131-4.509.363-.232.687-.539.987-.852.64-.669.757-1.604.333-2.423-.1-.193-.223-.376-.348-.554-.565-.802-1.123-1.61-1.708-2.397-.232-.312-.502-.608-.8-.858-1.494-1.255-3.28-1.466-5.117-1.271-1.304.138-2.59.31-3.898.082-1.01-.176-1.964.025-2.806.609-1.486,1.032-2.971,2.068-4.422,3.148-1.188.885-2.061,2.064-2.788,3.342-1.108,1.946-.976,3.967-.246,5.988.46,1.273,1.391,2.106,2.685,2.474.641.183,1.321.233,2.005.346Zm59.508-17.08l-.002-.045c-.957.042-1.917.056-2.872.132-1.921.154-3.735.645-5.312,1.816-.919.683-1.755,1.44-2.201,2.536-.206.506-.241,1.036-.072,1.536.266.785.88,1.174,1.695,1.215.456.023.915-.032,1.373-.028.862.008,1.435.418,1.724,1.237.145.41.246.836.382,1.249.67,2.033,2.494,3.163,4.574,2.788.615-.111,1.224-.318,1.801-.563,1.725-.733,3.42-1.538,5.151-2.256,2.578-1.069,5.184-2.059,7.899-2.748.669-.17,1.314-.472,1.934-.784.716-.36,1.288-.9,1.589-1.671.329-.839.096-1.675-.632-2.207-.225-.165-.485-.304-.75-.389-1.389-.449-2.781-.888-4.18-1.306-.457-.137-.933-.251-1.407-.288-1.996-.154-3.993-.337-5.992-.387-1.565-.039-3.135.102-4.703.162Zm12.392,28.297c.02.002.04.003.061.005,0,.284-.031.572.006.851.1.752.152,1.522.364,2.244.398,1.356,1.532,1.979,2.93,1.797,1.775-.23,3.421-.844,5.024-1.594,2.305-1.079,4.256-2.635,5.941-4.527.973-1.093,1.871-2.247,2.491-3.588.322-.696.576-1.404.562-2.196-.011-.651-.276-1.128-.806-1.478-.146-.096-.291-.196-.447-.273-.904-.442-1.339-1.215-1.517-2.161-.113-.599-.177-1.207-.303-1.802-.098-.466-.197-.947-.398-1.372-.402-.847-1.173-1.104-2.028-.718-.274.124-.535.3-.765.495-1.304,1.109-2.469,2.336-3.285,3.865-.822,1.541-1.644,3.081-1.969,4.822-.12.641-.18,1.294-.309,1.933-.077.379-.176.777-.373,1.101-.324.533-.874.529-1.216.011-.176-.265-.254-.595-.377-.895-.189-.461-.32-.958-.581-1.374-.501-.799-1.309-.839-1.983-.17-.441.438-.647.991-.713,1.58-.129,1.144-.21,2.294-.31,3.442ZM49.535,26.499c-.696.062-1.292.059-1.864.178-.915.19-1.819.441-2.718.701-1.626.47-3.173,1.119-4.476,2.23-1.028.877-2.043,1.771-3.027,2.696-.425.4-.803.868-1.123,1.357-.724,1.107-.416,2.242.74,2.875.209.114.431.224.66.281,1.014.251,2.031.492,3.051.717,1.595.352,3.191.705,4.792,1.025,1.368.274,2.654.037,3.791-.797,1.743-1.281,3.165-2.862,4.304-4.698.571-.921.935-1.919,1.017-3.006.109-1.453-.546-2.484-1.909-3.004-.223-.085-.452-.173-.686-.207-.881-.132-1.766-.242-2.551-.347Zm72.145,14.146c-.009,0-.019,0-.028,0,0-.611.059-1.229-.011-1.832-.23-1.986-.466-3.973-.782-5.946-.143-.894-.404-1.788-.748-2.627-.632-1.542-1.98-2.077-3.537-1.484-1.09.415-1.936,1.162-2.649,2.067-.758.962-.948,2.033-.574,3.2.358,1.118.937,2.124,1.743,2.964,1.181,1.23,1.975,2.626,2.284,4.318.205,1.124.735,2.142,1.302,3.125.215.372.498.721.81,1.018.688.653,1.547.444,1.862-.452.128-.364.185-.764.207-1.152.059-1.065.083-2.132.121-3.198Zm25.157,14.246c0,.243-.012.397.002.548.115,1.303.593,2.404,1.756,3.114.82.5,2.206.52,2.908-.689.597-1.027.889-2.15.629-3.324-.353-1.591-.786-3.165-1.207-4.74-.077-.287-.227-.572-.406-.811-.474-.629-1.286-.57-1.664.12-.166.302-.298.636-.374.972-.17.755-.467,1.453-.873,2.102-.538.859-.734,1.804-.77,2.706Zm-5.596-3.201c.122.457.175.948.378,1.366.529,1.084,1.565,1.544,2.659.937.377-.209.74-.468,1.051-.765,1.013-.965,1.19-2.368.488-3.58-.477-.823-1.301-1.152-2.228-.957-1.138.239-2.428,1.553-2.349,3Z"/>
</svg>