<?xml version="1.0" encoding="UTF-8"?>
<svg id="Layer_1" data-name="Layer 1" xmlns="http://www.w3.org/2000/svg" width="64mm" height="37mm" viewBox="0 0 181.417 104.882">
  <defs>
    <style>
      .cls-1 {
        fill: #ffffff;
      }
    </style>
  </defs>
  <path class="cls-1" d="m87.727,9.494c.644,0,1.287-.011,1.931.003.75.015,1.489.1,2.196.382.622.248,1.179.59,1.659,1.058.513.5.977,1.043,1.341,1.659.577.976,1.254,1.879,1.932,2.784.26.347.489.719.703,1.096.587,1.036.874,2.15.846,3.345-.013.556.005,1.113-.004,1.67-.012.752.094,1.485.286,2.211.245.924.468,1.853.705,2.779.169.661.225,1.335.238,2.014.01.522-.01,1.044.014,1.565.061,1.306.259,2.592.596,3.857.206.774.362,1.555.382,2.362.018.734-.082,1.456-.161,2.182-.104.952-.292,1.889-.53,2.816-.147.574-.109,1.098.275,1.576.198.247.319.538.395.845.089.36.252.685.471.981.279.378.564.751.845,1.127.22.296.512.472.878.502.546.045,1.005.251,1.365.671.185.217.444.331.693.455.42.208.842.412,1.259.628.526.272,1.077.48,1.635.676,1.387.485,2.598,1.247,3.559,2.372.225.263.418.555.607.846.275.423.535.855.796,1.286.319.525.729.971,1.167,1.397.249.241.474.507.705.766.301.337.587.688.899,1.014.436.455.814.949,1.129,1.494.13.225.268.448.421.658.22.302.508.519.873.629.499.15.944.003,1.225-.436.111-.174.187-.372.27-.563.119-.271.224-.547.345-.816.153-.34.38-.622.688-.836.057-.04.113-.081.17-.121.396-.282.602-.649.578-1.153-.027-.573-.011-1.148-.025-1.721-.013-.541-.131-1.068-.247-1.595-.176-.798-.375-1.593-.385-2.416-.005-.382-.003-.765.018-1.146.046-.828-.051-1.627-.378-2.398-.29-.685-.353-1.405-.303-2.147.039-.588.034-1.183.006-1.772-.076-1.633-.137-3.263.005-4.897.062-.71.098-1.42.212-2.125.175-1.083.441-2.143.765-3.191.354-1.146.714-2.289,1.163-3.402.254-.63.547-1.24.896-1.823.434-.723.958-1.369,1.637-1.874.583-.434,1.049-.958,1.384-1.604.258-.498.606-.936,1.011-1.321,1.008-.958,2.027-1.904,3.109-2.781,1.088-.881,2.282-1.586,3.533-2.202,1.154-.568,2.301-1.149,3.461-1.702,1.162-.554,2.373-.994,3.602-1.369.678-.207,1.388-.321,2.09-.432.911-.144,1.813-.331,2.7-.573.864-.237,1.728-.371,2.625-.303.415.031.834.017,1.251.003.906-.031,1.806.063,2.708.126.783.054,1.563.018,2.342-.065.259-.028.52-.034.781-.046.851-.04,1.701-.078,2.552-.117.582-.026,1.141.087,1.685.286.147.054.296.1.442.158.574.228,1.163.342,1.784.291.612-.05,1.171.114,1.67.472.184.132.366.265.548.399.826.609,1.642,1.231,2.48,1.823.69.487,1.29,1.054,1.778,1.743.984,1.391,1.979,2.775,2.953,4.173.257.369.468.773.672,1.175.108.214.174.454.226.69.055.251-.007.489-.217.658-.213.172-.461.176-.685.043-.237-.141-.481-.292-.667-.49-.919-.976-1.792-1.991-2.418-3.191-.136-.261-.286-.518-.455-.759-.118-.168-.263-.328-.425-.453-.362-.281-.775-.39-1.226-.258-.199.058-.402.122-.581.222-.8.45-1.46,1.062-1.989,1.812-.302.428-.444.906-.346,1.431.035.186.092.373.172.544.176.378.379.743.558,1.119.097.203.194.411.245.628.083.349-.196.584-.528.445-.172-.072-.328-.192-.476-.309-.204-.162-.39-.346-.59-.513-.547-.456-1.178-.731-1.876-.855-.256-.046-.518-.063-.773-.116-.442-.092-.89-.17-1.317-.313-.849-.283-1.723-.413-2.605-.499-.708-.069-1.417-.11-2.134-.063-.552.036-1.11-.051-1.666-.051-.573,0-1.146.028-1.719.061-.677.038-1.353.088-2.028.145-.902.076-1.803.132-2.709.112-.352-.008-.692.063-1.024.17-.165.053-.331.109-.487.184-.741.356-1.519.582-2.325.743-.885.177-1.755.427-2.637.621-.882.194-1.767.382-2.676.414-.33.011-.66.032-.99.041-.734.021-1.449.159-2.163.317-.737.164-1.356.528-1.869,1.075-.678.723-1.365,1.435-1.965,2.229-.281.371-.626.698-.968,1.018-.448.42-.834.882-1.138,1.417-.197.347-.418.682-.641,1.013-.304.452-.523.937-.673,1.461-.162.568-.332,1.135-.532,1.69-.323.893-.363,1.799-.187,2.722.146.769.262,1.541.282,2.327.013.521.106,1.034.25,1.54.142.501.238,1.014.36,1.521.39,1.624.81,3.236,1.604,4.725.494.927.764,1.937.983,2.96.105.493.205.987.3,1.482.131.687.364,1.34.652,1.975.624,1.377,1.228,2.763,1.873,4.13.378.801.786,1.591,1.24,2.351,1.036,1.734,1.954,3.527,2.782,5.367.466,1.035,1.032,2.005,1.683,2.935,1.119,1.599,2.363,3.094,3.676,4.535.314.345.601.724.85,1.118.378.599.845,1.094,1.429,1.495.414.285.801.612,1.185.938.546.464,1.105.903,1.791,1.144,1.449.508,2.836.376,4.154-.417.149-.089.287-.196.433-.29.496-.32.98-.664,1.494-.953.87-.49,1.569-1.146,2.083-2,.45-.747.956-1.452,1.512-2.122.658-.793,1.193-1.668,1.691-2.567.287-.517.562-1.04.849-1.556.355-.638.7-1.283,1.08-1.905.457-.746.808-1.535,1.091-2.361.22-.64.483-1.265.729-1.897.195-.502.411-.997.584-1.507.415-1.225.955-2.389,1.677-3.463.451-.671.69-1.396.663-2.208-.011-.329.01-.66-.004-.989-.042-.962-.901-1.57-1.885-1.331-.649.158-1.162.546-1.561,1.072-.177.233-.312.5-.454.758-.192.35-.36.714-.561,1.059-.355.607-.832,1.12-1.36,1.572-1.407,1.203-2.619,2.589-3.837,3.973-.172.195-.353.385-.549.555-.221.191-.487.307-.765.134-.274-.171-.305-.453-.225-.74.079-.283.165-.568.283-.836.253-.575.591-1.103.973-1.601.539-.704,1.071-1.414,1.625-2.106.49-.611.8-1.3.968-2.057.037-.169.057-.344.062-.517.015-.526-.221-.9-.71-1.104-.16-.067-.323-.13-.489-.18-.5-.149-.845-.464-1.05-.94-.083-.191-.167-.383-.264-.567-.332-.627-.856-.935-1.568-.929-.443.004-.857.126-1.263.288-.584.233-1.12.555-1.644.9-.334.22-.667.441-1.007.652-.162.101-.338.176-.538.177-.329.002-.512-.19-.5-.525.009-.238.121-.433.25-.62.339-.488.729-.935,1.173-1.326.819-.722,1.496-1.548,1.973-2.535.075-.156.17-.303.262-.451.33-.532.773-.946,1.356-1.177,1.049-.417,2.101-.824,3.229-.994.479-.072.956-.187,1.417-.335.788-.253,1.583-.378,2.412-.322.468.031.939.02,1.408.022,1.171.003,2.322.154,3.46.427.801.192,1.473.589,2.031,1.202.315.346.659.673,1.031.956.643.49.949,1.137,1.01,1.92.022.277.032.556.027.834-.01.628.051,1.249.138,1.87.06.43.075.866.131,1.297.179,1.365.191,2.738.233,4.11.012.399.064.798.056,1.197-.009.503-.048,1.007-.097,1.508-.113,1.159-.23,2.317-.365,3.473-.048.412-.112.831-.235,1.225-.376,1.198-.602,2.428-.822,3.659-.14.787-.27,1.576-.399,2.365-.078.479-.121.966-.224,1.44-.156.715-.421,1.397-.724,2.062-.284.626-.699,1.16-1.194,1.632-.239.228-.491.442-.733.666-.388.359-.626.792-.602,1.333.022.498-.157.909-.466,1.29-.207.255-.37.545-.551.821-.076.116-.138.243-.221.353-.233.309-.544.49-.936.487-.33-.003-.659-.031-.989-.053-.173-.012-.345-.042-.518-.053-.705-.045-1.338.144-1.902.575-.376.288-.698.628-.99.997-.63.796-1.363,1.484-2.16,2.108-.096.075-.195.146-.292.22-.785.593-1.667.835-2.645.748-.329-.029-.659-.048-.988-.064-.455-.023-.902.03-1.339.166-.099.031-.203.05-.3.088-.86.332-1.734.306-2.618.111-.681-.15-1.346-.35-1.99-.613-.868-.354-1.731-.724-2.596-1.085-.417-.174-.831-.354-1.254-.512-.881-.331-1.722-.744-2.546-1.195-.66-.361-1.24-.834-1.815-1.312-.321-.267-.635-.542-.959-.805-.723-.589-1.513-1.051-2.43-1.265-.81-.189-1.618-.18-2.425.035-.622.166-1.094.5-1.378,1.096-.134.28-.313.542-.494.796-.289.405-.349.823-.135,1.276.074.157.143.317.209.478.159.392.149.78-.033,1.162-.045.094-.098.184-.146.277-.208.401-.432.794-.619,1.204-.271.595-.703.987-1.339,1.135-.44.102-.882.196-1.328.267-.653.103-1.309.173-1.972.175-.65.002-1.28-.097-1.888-.333-.82-.319-1.556-.771-2.192-1.38-.445-.426-.787-.926-1.043-1.485-.058-.126-.114-.254-.164-.384-.242-.628-.613-1.17-1.099-1.63-.574-.544-1.022-1.179-1.413-1.862-.337-.588-.693-1.165-1.052-1.74-.469-.753-.923-1.515-1.288-2.325-.322-.715-.696-1.401-1.099-2.071-.271-.45-.472-.929-.563-1.45-.039-.223-.077-.446-.101-.67-.066-.626-.31-1.175-.724-1.643-.415-.468-.836-.932-1.27-1.382-.842-.872-1.475-1.888-2.055-2.941-.22-.399-.357-.833-.438-1.278-.149-.814-.517-1.502-1.093-2.093-.606-.623-1.185-1.272-1.859-1.826-.391-.322-.806-.605-1.271-.812-.639-.285-1.309-.351-1.991-.245-.7.109-1.257.48-1.712,1.016-.318.376-.571.792-.739,1.252-.226.62-.45,1.242-.63,1.877-.218.769-.397,1.549-.579,2.327-.17.73-.276,1.468-.233,2.221.05.872-.046,1.736-.173,2.597-.056.378-.106.757-.153,1.136-.072.578-.276,1.111-.547,1.621-.545,1.029-1.104,2.051-1.637,3.086-.46.894-1.067,1.667-1.814,2.333-.272.243-.552.479-.818.729-1.002.938-2.169,1.622-3.398,2.207-.616.293-1.206.617-1.701,1.095-.59.571-1.316.827-2.118.895-1.321.112-2.638.091-3.954-.078-.517-.067-1.038-.102-1.557-.139-.612-.044-1.212.091-1.816.151-1.076.105-2.152.115-3.227-.003-.726-.079-1.456-.127-2.177-.237-1.385-.212-2.7-.653-3.919-1.349-.498-.284-.971-.611-1.46-.91-.222-.136-.448-.269-.685-.372-.405-.174-.78-.094-1.115.191-.542.462-.686,1.035-.397,1.685.317.715.658,1.419.971,2.136.3.687.546,1.393.61,2.147.02.242.013.486.029.729.013.19.014.388.071.566.128.398.492.513.828.264.136-.101.25-.241.351-.379.143-.196.262-.41.399-.612.197-.29.433-.543.725-.742.555-.379,1.177-.421,1.804-.297,1.052.208,1.946.732,2.706,1.481.397.392.618.878.669,1.436.062.681.022,1.355-.161,2.017-.185.667-.522,1.243-1.01,1.738-.687.696-1.483,1.182-2.438,1.435-1.057.281-2.098.62-3.146.935-.499.15-.995.304-1.523.337-.723.045-1.383-.122-1.963-.559-1.03-.776-1.997-1.622-2.857-2.587-.611-.685-.977-1.491-1.073-2.39-.132-1.235-.589-2.355-1.106-3.458-.572-1.22-1.319-2.327-2.195-3.349-1.121-1.307-2.234-2.62-3.364-3.92-.387-.445-.814-.856-1.221-1.284-.455-.479-.916-.952-1.358-1.443-.343-.381-.728-.702-1.195-.908-.765-.338-1.382-.855-1.921-1.486-.576-.675-1.142-1.357-1.625-2.104-.814-1.258-1.759-2.42-2.715-3.568-.67-.805-1.302-1.628-1.786-2.56-.242-.465-.549-.884-.922-1.257-.337-.337-.713-.615-1.157-.784-.567-.216-1.143-.41-1.717-.608-.213-.073-.434-.123-.648-.194-.544-.181-1-.498-1.33-.963-.393-.552-.762-1.121-1.128-1.692-.189-.295-.293-.627-.355-.974-.046-.256-.09-.517-.181-.759-.182-.486-.583-.679-1.087-.558-.389.094-.684.336-.945.619-.323.351-.539.764-.676,1.221-.202.673-.264,1.367-.272,2.061-.011.931-.154,1.829-.438,2.715-.366,1.142-.699,2.294-1.046,3.441-.383,1.267-.856,2.498-1.486,3.666-.165.306-.301.627-.462.935-.338.647-.652,1.309-1.032,1.931-.576.942-.928,1.955-.974,3.047-.066,1.556-.498,3.012-1.079,4.435-.401.981-.816,1.957-1.243,2.927-.16.365-.357.715-.559,1.06-.516.881-1.261,1.469-2.258,1.722-.808.205-1.616.411-2.425.613-.595.148-1.205.174-1.812.188-.938.022-1.878.019-2.814-.08-.577-.061-1.127-.209-1.641-.478-.71-.37-1.199-.933-1.463-1.693-.195-.562-.284-1.146-.384-1.728-.204-1.191-.052-2.349.282-3.501.688-2.374,1.513-4.696,2.517-6.955.014-.032.022-.067.038-.097.79-1.43,1.435-2.935,2.247-4.355.535-.935.995-1.911,1.503-2.861.894-1.671,1.799-3.336,2.8-4.946.147-.236.288-.477.448-.704.652-.925,1.224-1.898,1.753-2.899.39-.738.825-1.452,1.203-2.195.37-.727.709-1.471,1.03-2.222.149-.348.248-.724.321-1.098.153-.784-.162-1.456-.855-1.854-.773-.444-1.693-.527-2.521.175-.238.202-.45.434-.672.655-.222.221-.428.459-.664.663-.652.565-1.337.435-1.694-.347-.186-.408-.325-.846-.418-1.285-.249-1.173-.471-2.351-.683-3.532-.079-.444-.117-.897-.143-1.347-.046-.833-.075-1.666-.098-2.5-.008-.277.027-.555.037-.832.025-.699-.069-1.388-.204-2.071-.113-.571-.111-1.138-.012-1.71.101-.583.211-1.171.049-1.758-.102-.367-.234-.727-.379-1.079-.18-.435-.358-.869-.414-1.34-.025-.207-.045-.415-.054-.623-.033-.712-.049-1.424-.093-2.135-.055-.892.035-1.769.204-2.644.258-1.337.616-2.639,1.241-3.858.511-.998,1.145-1.9,1.945-2.693.852-.844,1.666-1.727,2.497-2.592,1.013-1.055,2.094-2.036,3.258-2.923.581-.443,1.165-.882,1.737-1.336,1.105-.877,2.285-1.648,3.461-2.422,1.111-.731,2.344-1.106,3.674-1.203,1.114-.081,2.223-.083,3.333.028.868.088,1.717.273,2.525.611,1.283.537,2.546,1.121,3.741,1.835,1.573.94,3.004,2.073,4.353,3.31.564.517,1.097,1.067,1.638,1.608.347.347.637.739.846,1.183.363.772.785,1.511,1.219,2.244.393.665.618,1.396.783,2.147.333,1.515.571,3.041.477,4.601-.028.468-.053.937-.093,1.405-.097,1.146-.079,2.293-.071,3.441.005.679.065,1.355.236,2.015.114.437.232.874.382,1.3.25.712.383,1.44.405,2.195.014.451.057.903.117,1.35.132.976.043,1.943-.069,2.911-.04.345-.076.692-.086,1.038-.013.42.064.829.21,1.226.132.358.255.721.359,1.088.258.906-.021,1.833-.989,2.336-.615.319-1.257.593-1.906.836-.616.231-1.266.194-1.908.096-.326-.05-.65-.115-.977-.167-.551-.087-1.106-.106-1.664-.102-.661.005-1.322-.004-1.983-.008-1.024-.006-1.951-.303-2.768-.928-.221-.169-.447-.331-.668-.5-.578-.441-1.029-.982-1.308-1.66-.23-.559-.594-1.023-1.047-1.413-1.155-.997-1.849-2.286-2.366-3.69-.048-.13-.084-.265-.119-.399-.165-.625-.062-1.205.29-1.745.307-.471.706-.859,1.123-1.229.598-.531,1.203-1.054,1.804-1.582.117-.103.228-.214.342-.322.474-.447,1.011-.791,1.631-1.003.262-.09.527-.183.771-.312.715-.378.73-.964.044-1.39-.206-.128-.428-.232-.636-.358-.317-.192-.583-.437-.766-.766-.236-.424-.214-.831.076-1.22.073-.097.155-.188.237-.277.083-.089.174-.171.256-.26.514-.555.58-1.085.137-1.693-.337-.462-.719-.896-1.124-1.299-.215-.214-.514-.35-.788-.496-.26-.139-.541-.237-.806-.367-.613-.301-.951-.789-.996-1.478-.015-.225-.048-.45-.097-.67-.243-1.097-1.47-1.554-2.33-1.027-.162.099-.317.215-.453.347-.149.144-.289.304-.403.477-.454.689-.996,1.294-1.642,1.806-.108.086-.201.193-.301.289-.329.319-.489.711-.507,1.165-.01.261,0,.524-.032.781-.097.767-.357,1.485-.715,2.167-.301.571-.777.875-1.43.886-.122.002-.244-.002-.365.007-.35.025-.593.21-.689.542-.062.214-.084.443-.095.667-.033.694-.071,1.388-.069,2.082.002.432.083.864.111,1.297.017.258.03.522-.007.776-.051.354-.273.593-.619.705-.132.043-.27.071-.398.123-.342.138-.467.405-.34.758.058.162.143.317.239.461.231.347.468.691.716,1.027.434.586.71,1.229.781,1.96.054.556.297,1.027.679,1.434.453.481.904.964,1.34,1.46.286.326.557.667.812,1.017.349.477.681.967,1.013,1.456.41.603.939,1.067,1.585,1.402.586.304,1.174.604,1.754.92.549.299,1.09.614,1.631.927.286.165.562.347.847.514.578.338,1.2.554,1.868.61.834.07,1.534.413,2.131.989,1.529,1.475,3.195,2.79,4.839,4.13.393.32.82.587,1.283.793.127.056.254.114.383.166.95.381,1.772.953,2.502,1.665.611.596,1.175,1.233,1.703,1.903.99,1.257,1.993,2.503,2.995,3.751.108.135.232.26.363.372.372.316.794.345,1.217.135.727-.361,1.216-.917,1.324-1.752.102-.793.197-1.587.299-2.38.089-.691.227-1.371.431-2.037.173-.565.337-1.134.543-1.687.181-.487.395-.965.632-1.428.238-.466.439-.942.606-1.438.335-.994.765-1.947,1.482-2.73.646-.705,1.31-1.394,1.994-2.062.732-.715,1.595-1.225,2.585-1.511.434-.125.866-.258,1.291-.409.21-.075.42-.174.599-.306.35-.259.381-.61.103-.951-.087-.107-.191-.206-.304-.283-.26-.174-.514-.369-.799-.488-.888-.37-1.807-.623-2.782-.587-.278.01-.555.035-.832.052-.506.032-1.005.007-1.496-.141-1.031-.311-1.753-1.428-1.122-2.674.117-.231.261-.452.417-.66.711-.945,1.078-2.015,1.174-3.185.024-.294.051-.59.043-.884-.036-1.376.074-2.744.189-4.113.029-.343-.009-.693-.041-1.037-.012-.131-.074-.268-.146-.382-.112-.176-.367-.187-.488-.016-.097.138-.181.301-.218.465-.114.508-.207,1.021-.3,1.534-.084.462-.148.927-.24,1.387-.04.202-.112.4-.197.588-.027.059-.143.111-.214.106-.069-.005-.151-.076-.193-.141-.045-.069-.059-.162-.071-.247-.011-.085-.005-.173-.002-.26.027-.663-.017-1.32-.149-1.971-.223-1.101-.234-2.208-.11-3.322.058-.525.187-1.028.427-1.495.357-.697.681-1.406.953-2.141.182-.494.492-.918.808-1.334.295-.388.593-.772.891-1.158.555-.72,1.008-1.497,1.354-2.34.185-.45.385-.895.615-1.323.541-1.005,1.233-1.895,2.123-2.617.986-.8,1.977-1.593,2.982-2.368.717-.553,1.435-1.101,2.083-1.734.722-.707,1.566-1.2,2.527-1.511.909-.295,1.808-.616,2.712-.926,1.014-.347,1.947-.827,2.729-1.581.477-.459,1.013-.844,1.625-1.118.778-.349,1.6-.459,2.438-.477.661-.014,1.322-.003,1.983-.003Zm-14.701,64.918c.626,0,1.252.012,1.878-.004.398-.01.8-.035,1.192-.101.826-.139,1.614-.413,2.38-.747.483-.211.915-.497,1.28-.881.203-.214.413-.424.598-.653.487-.603,1.062-1.097,1.735-1.48.091-.052.179-.108.269-.16.546-.317.932-.771,1.176-1.351.101-.24.219-.473.321-.713.429-1.001,1.002-1.891,1.815-2.641.743-.686,1.31-1.528,1.833-2.394.285-.472.449-.974.414-1.534-.023-.364-.022-.73-.045-1.094-.013-.207-.039-.417-.087-.619-.103-.43-.406-.731-.892-.721-.139.003-.278.007-.417.015-.208.013-.416.034-.624.046-1.093.059-1.964-.353-2.608-1.239-.174-.239-.348-.478-.515-.721-.62-.901-1.441-1.55-2.464-1.93-.927-.345-1.853-.699-2.798-.987-1.391-.425-2.811-.646-4.268-.361-.835.163-1.671.323-2.458.665-.462.201-.926.397-1.385.602-.431.192-.834.432-1.179.757-.597.562-.849,1.235-.441,2.122.109.237.223.471.324.711.254.602.291,1.213.047,1.827-.122.306-.243.615-.397.906-.368.694-.511,1.432-.502,2.211.009.887.006,1.773,0,2.66-.004.648.085,1.279.273,1.901.125.415.219.839.317,1.262.197.846.382,1.694.583,2.539.064.27.149.536.249.795.306.794.903,1.208,1.74,1.285.242.022.486.026.729.027.643.004,1.287.001,1.93.001Zm17.39-46.676c0-.075,0-.248,0-.422.002-.721-.097-1.42-.433-2.07-.233-.452-.578-.785-1.061-.949-.842-.286-1.691-.547-2.598-.321-.067.017-.139.012-.207.025-.446.088-.861-.007-1.261-.204-.156-.077-.313-.151-.472-.221-.454-.2-.912-.201-1.366-.009-.673.285-1.327.608-1.939,1.008-.663.434-1.204.996-1.638,1.658-.204.31-.338.645-.312,1.028.023.347.191.59.509.722.11.046.232.071.351.086.258.034.519.047.777.082,1.249.17,1.762,1.15,1.727,1.946-.02.46-.138.89-.267,1.322-.148.499-.327.992-.44,1.499-.205.922-.535,1.795-.936,2.646-.503,1.068-1.013,2.133-1.428,3.242-.357.952-.888,1.807-1.583,2.555-.154.165-.31.33-.447.509-.347.456-.697.91-1.019,1.383-.297.436-.477.932-.55,1.452-.119.844-.143,1.697-.135,2.548.004.427.232.726.643.85.213.064.441.095.665.108,1.254.068,2.422.427,3.523,1.021.749.405,1.506.794,2.248,1.21.56.314,1.108.651,1.652.993.58.364,1.066.834,1.473,1.385.165.224.322.454.494.672.118.149.243.298.387.421.323.275.705.235.946-.116.136-.197.231-.427.317-.652.274-.716.605-1.403.991-2.065.131-.225.264-.45.387-.679.501-.936.909-1.913,1.228-2.926.202-.641.247-1.295.155-1.958-.033-.241-.094-.478-.125-.719-.068-.515-.128-1.028-.095-1.554.076-1.196.178-2.391.141-3.592-.018-.591-.021-1.183,0-1.773.056-1.479-.061-2.952-.134-4.426-.054-1.093-.138-2.184-.206-3.276-.019-.312-.042-.624-.035-.936.01-.468.044-.936.073-1.504Zm9.883,22.99c.03.205.056.536.131.856.114.485.412.699.9.688.121-.003.245-.009.362-.039.766-.197,1.544-.214,2.328-.177.507.024,1.005.103,1.471.302.398.17.788.362,1.163.577.874.5,1.736,1.021,2.605,1.528.149.087.309.155.469.22.135.055.278.056.388-.056.111-.113.095-.252.044-.39-.012-.033-.018-.068-.034-.099-.272-.545-.56-1.079-.979-1.529-.567-.609-1.248-1.056-2.022-1.343-.945-.35-1.874-.732-2.757-1.221-.37-.205-.771-.312-1.186-.371-.533-.075-1.067-.145-1.601-.204-.206-.023-.418-.033-.624-.013-.406.04-.622.27-.658.677-.013.155-.002.312-.002.592Z"/>
</svg>